<?xml version="1.0" standalone="no"?>
<!DOCTYPE svg PUBLIC "-//W3C//DTD SVG 20010904//EN"
 "http://www.w3.org/TR/2001/REC-SVG-20010904/DTD/svg10.dtd">
<svg version="1.0" xmlns="http://www.w3.org/2000/svg"
 width="700.000000pt" height="700.000000pt" viewBox="0 0 700.000000 700.000000"
 preserveAspectRatio="xMidYMid meet">
<metadata>
Created by potrace 1.11, written by Peter Selinger 2001-2013
</metadata>
<g transform="translate(0.000000,700.000000) scale(0.100000,-0.100000)"
fill="#000000" stroke="none">
<path d="M5713 6214 c-56 -21 -124 -82 -153 -140 -35 -68 -35 -179 0 -248 30
-58 99 -120 157 -140 131 -45 285 19 344 143 27 56 33 155 13 214 -19 57 -82
127 -137 155 -60 30 -166 38 -224 16z"/>
<path d="M5342 6137 c-12 -13 -22 -33 -22 -46 0 -28 42 -71 70 -71 12 0 32 11
45 25 14 13 25 34 25 45 0 28 -43 70 -73 70 -13 0 -33 -10 -45 -23z"/>
<path d="M3319 6086 c-2 -2 -38 -6 -80 -10 -97 -8 -228 -30 -355 -61 -971
-235 -1720 -1015 -1922 -2000 -12 -55 -24 -125 -27 -155 -4 -30 -10 -84 -15
-120 -8 -68 -6 -476 3 -520 3 -14 8 -47 12 -75 3 -27 9 -66 12 -85 5 -35 30
-151 39 -181 3 -11 -7 -19 -37 -28 -64 -19 -140 -101 -163 -175 -46 -145 29
-298 170 -349 60 -21 115 -22 179 -2 27 8 50 13 50 12 1 -1 21 -38 45 -82 105
-195 266 -410 430 -575 162 -162 268 -246 516 -407 53 -35 332 -167 427 -202
104 -39 294 -94 366 -106 19 -3 37 -7 40 -9 3 -2 29 -7 56 -10 28 -3 59 -8 70
-10 134 -27 576 -29 720 -2 11 2 43 7 70 10 202 28 528 134 725 236 137 70
349 198 380 230 3 3 50 41 105 85 260 206 511 514 664 815 155 303 239 585
278 925 10 90 10 441 0 525 -4 36 -10 85 -13 110 -15 133 -71 352 -135 530
-55 153 -229 490 -290 564 -5 6 -33 43 -61 81 -115 156 -298 347 -449 469
-176 142 -428 292 -619 370 -36 15 -74 31 -85 36 -114 51 -412 127 -570 146
-27 3 -61 8 -75 11 -30 6 -455 14 -461 9z"/>
<path d="M6031 5443 c-75 -39 -102 -129 -59 -193 63 -94 190 -88 240 11 23 44
23 86 -2 126 -39 65 -117 89 -179 56z"/>
<path d="M866 5100 c-82 -25 -121 -124 -76 -198 41 -66 113 -88 179 -54 101
51 106 183 9 242 -35 21 -65 24 -112 10z"/>
<path d="M5599 1797 c-90 -60 -88 -182 4 -237 115 -70 257 73 187 188 -43 70
-128 92 -191 49z"/>
<path d="M1682 1030 c-94 -57 -94 -183 0 -240 61 -37 142 -16 185 49 77 115
-67 263 -185 191z"/>
</g>
</svg>
